<?xml version='1.0' encoding='UTF-8'?>
<svg width="135mm" height="135mm" version="1.1" viewBox="0 0 135 135" xmlns="http://www.w3.org/2000/svg"><path d="M12,12H15V15H12zM15,12H18V15H15zM18,12H21V15H18zM21,12H24V15H21zM24,12H27V15H24zM27,12H30V15H27zM30,12H33V15H30zM36,12H39V15H36zM39,12H42V15H39zM42,12H45V15H42zM45,12H48V15H45zM48,12H51V15H48zM60,12H63V15H60zM63,12H66V15H63zM72,12H75V15H72zM81,12H84V15H81zM87,12H90V15H87zM102,12H105V15H102zM105,12H108V15H105zM108,12H111V15H108zM111,12H114V15H111zM114,12H117V15H114zM117,12H120V15H117zM120,12H123V15H120zM12,15H15V18H12zM30,15H33V18H30zM36,15H39V18H36zM42,15H45V18H42zM57,15H60V18H57zM60,15H63V18H60zM63,15H66V18H63zM66,15H69V18H66zM69,15H72V18H69zM78,15H81V18H78zM102,15H105V18H102zM120,15H123V18H120zM12,18H15V21H12zM18,18H21V21H18zM21,18H24V21H21zM24,18H27V21H24zM30,18H33V21H30zM36,18H39V21H36zM45,18H48V21H45zM54,18H57V21H54zM57,18H60V21H57zM60,18H63V21H60zM66,18H69V21H66zM69,18H72V21H69zM75,18H78V21H75zM84,18H87V21H84zM87,18H90V21H87zM90,18H93V21H90zM96,18H99V21H96zM102,18H105V21H102zM108,18H111V21H108zM111,18H114V21H111zM114,18H117V21H114zM120,18H123V21H120zM12,21H15V24H12zM18,21H21V24H18zM21,21H24V24H21zM24,21H27V24H24zM30,21H33V24H30zM45,21H48V24H45zM51,21H54V24H51zM54,21H57V24H54zM57,21H60V24H57zM63,21H66V24H63zM69,21H72V24H69zM75,21H78V24H75zM78,21H81V24H78zM81,21H84V24H81zM84,21H87V24H84zM87,21H90V24H87zM93,21H96V24H93zM96,21H99V24H96zM102,21H105V24H102zM108,21H111V24H108zM111,21H114V24H111zM114,21H117V24H114zM120,21H123V24H120zM12,24H15V27H12zM18,24H21V27H18zM21,24H24V27H21zM24,24H27V27H24zM30,24H33V27H30zM36,24H39V27H36zM39,24H42V27H39zM42,24H45V27H42zM51,24H54V27H51zM54,24H57V27H54zM63,24H66V27H63zM66,24H69V27H66zM69,24H72V27H69zM75,24H78V27H75zM90,24H93V27H90zM96,24H99V27H96zM102,24H105V27H102zM108,24H111V27H108zM111,24H114V27H111zM114,24H117V27H114zM120,24H123V27H120zM12,27H15V30H12zM30,27H33V30H30zM39,27H42V30H39zM54,27H57V30H54zM60,27H63V30H60zM72,27H75V30H72zM75,27H78V30H75zM78,27H81V30H78zM81,27H84V30H81zM90,27H93V30H90zM96,27H99V30H96zM102,27H105V30H102zM120,27H123V30H120zM12,30H15V33H12zM15,30H18V33H15zM18,30H21V33H18zM21,30H24V33H21zM24,30H27V33H24zM27,30H30V33H27zM30,30H33V33H30zM36,30H39V33H36zM42,30H45V33H42zM48,30H51V33H48zM54,30H57V33H54zM60,30H63V33H60zM66,30H69V33H66zM72,30H75V33H72zM78,30H81V33H78zM84,30H87V33H84zM90,30H93V33H90zM96,30H99V33H96zM102,30H105V33H102zM105,30H108V33H105zM108,30H111V33H108zM111,30H114V33H111zM114,30H117V33H114zM117,30H120V33H117zM120,30H123V33H120zM39,33H42V36H39zM42,33H45V36H42zM45,33H48V36H45zM48,33H51V36H48zM51,33H54V36H51zM54,33H57V36H54zM66,33H69V36H66zM81,33H84V36H81zM87,33H90V36H87zM90,33H93V36H90zM93,33H96V36H93zM96,33H99V36H96zM12,36H15V39H12zM21,36H24V39H21zM24,36H27V39H24zM27,36H30V39H27zM30,36H33V39H30zM33,36H36V39H33zM36,36H39V39H36zM39,36H42V39H39zM42,36H45V39H42zM51,36H54V39H51zM54,36H57V39H54zM57,36H60V39H57zM60,36H63V39H60zM69,36H72V39H69zM72,36H75V39H72zM81,36H84V39H81zM90,36H93V39H90zM99,36H102V39H99zM108,36H111V39H108zM114,36H117V39H114zM117,36H120V39H117zM120,36H123V39H120zM12,39H15V42H12zM18,39H21V42H18zM21,39H24V42H21zM24,39H27V42H24zM27,39H30V42H27zM33,39H36V42H33zM39,39H42V42H39zM45,39H48V42H45zM51,39H54V42H51zM54,39H57V42H54zM63,39H66V42H63zM66,39H69V42H66zM69,39H72V42H69zM75,39H78V42H75zM87,39H90V42H87zM99,39H102V42H99zM108,39H111V42H108zM114,39H117V42H114zM117,39H120V42H117zM12,42H15V45H12zM15,42H18V45H15zM21,42H24V45H21zM27,42H30V45H27zM30,42H33V45H30zM51,42H54V45H51zM54,42H57V45H54zM63,42H66V45H63zM66,42H69V45H66zM78,42H81V45H78zM81,42H84V45H81zM87,42H90V45H87zM93,42H96V45H93zM99,42H102V45H99zM102,42H105V45H102zM108,42H111V45H108zM111,42H114V45H111zM120,42H123V45H120zM18,45H21V48H18zM21,45H24V48H21zM24,45H27V48H24zM45,45H48V48H45zM57,45H60V48H57zM63,45H66V48H63zM72,45H75V48H72zM84,45H87V48H84zM90,45H93V48H90zM93,45H96V48H93zM105,45H108V48H105zM111,45H114V48H111zM114,45H117V48H114zM117,45H120V48H117zM120,45H123V48H120zM18,48H21V51H18zM21,48H24V51H21zM24,48H27V51H24zM30,48H33V51H30zM33,48H36V51H33zM45,48H48V51H45zM51,48H54V51H51zM54,48H57V51H54zM60,48H63V51H60zM84,48H87V51H84zM93,48H96V51H93zM96,48H99V51H96zM102,48H105V51H102zM111,48H114V51H111zM120,48H123V51H120zM12,51H15V54H12zM15,51H18V54H15zM18,51H21V54H18zM21,51H24V54H21zM27,51H30V54H27zM33,51H36V54H33zM36,51H39V54H36zM39,51H42V54H39zM54,51H57V54H54zM57,51H60V54H57zM60,51H63V54H60zM75,51H78V54H75zM81,51H84V54H81zM87,51H90V54H87zM90,51H93V54H90zM93,51H96V54H93zM108,51H111V54H108zM111,51H114V54H111zM117,51H120V54H117zM18,54H21V57H18zM21,54H24V57H21zM27,54H30V57H27zM30,54H33V57H30zM36,54H39V57H36zM39,54H42V57H39zM42,54H45V57H42zM45,54H48V57H45zM57,54H60V57H57zM66,54H69V57H66zM69,54H72V57H69zM72,54H75V57H72zM78,54H81V57H78zM93,54H96V57H93zM96,54H99V57H96zM99,54H102V57H99zM108,54H111V57H108zM111,54H114V57H111zM114,54H117V57H114zM117,54H120V57H117zM120,54H123V57H120zM21,57H24V60H21zM27,57H30V60H27zM45,57H48V60H45zM60,57H63V60H60zM69,57H72V60H69zM78,57H81V60H78zM81,57H84V60H81zM84,57H87V60H84zM90,57H93V60H90zM96,57H99V60H96zM99,57H102V60H99zM102,57H105V60H102zM105,57H108V60H105zM111,57H114V60H111zM114,57H117V60H114zM117,57H120V60H117zM18,60H21V63H18zM21,60H24V63H21zM24,60H27V63H24zM30,60H33V63H30zM36,60H39V63H36zM42,60H45V63H42zM48,60H51V63H48zM54,60H57V63H54zM60,60H63V63H60zM63,60H66V63H63zM69,60H72V63H69zM72,60H75V63H72zM78,60H81V63H78zM81,60H84V63H81zM84,60H87V63H84zM102,60H105V63H102zM114,60H117V63H114zM12,63H15V66H12zM18,63H21V66H18zM24,63H27V66H24zM42,63H45V66H42zM48,63H51V66H48zM51,63H54V66H51zM60,63H63V66H60zM63,63H66V66H63zM69,63H72V66H69zM72,63H75V66H72zM75,63H78V66H75zM78,63H81V66H78zM87,63H90V66H87zM93,63H96V66H93zM99,63H102V66H99zM102,63H105V66H102zM105,63H108V66H105zM111,63H114V66H111zM12,66H15V69H12zM15,66H18V69H15zM18,66H21V69H18zM24,66H27V69H24zM30,66H33V69H30zM39,66H42V69H39zM45,66H48V69H45zM51,66H54V69H51zM54,66H57V69H54zM57,66H60V69H57zM63,66H66V69H63zM69,66H72V69H69zM72,66H75V69H72zM75,66H78V69H75zM81,66H84V69H81zM84,66H87V69H84zM93,66H96V69H93zM96,66H99V69H96zM102,66H105V69H102zM108,66H111V69H108zM111,66H114V69H111zM114,66H117V69H114zM120,66H123V69H120zM15,69H18V72H15zM21,69H24V72H21zM24,69H27V72H24zM27,69H30V72H27zM36,69H39V72H36zM45,69H48V72H45zM48,69H51V72H48zM51,69H54V72H51zM66,69H69V72H66zM87,69H90V72H87zM93,69H96V72H93zM99,69H102V72H99zM102,69H105V72H102zM105,69H108V72H105zM111,69H114V72H111zM120,69H123V72H120zM12,72H15V75H12zM18,72H21V75H18zM24,72H27V75H24zM30,72H33V75H30zM36,72H39V75H36zM48,72H51V75H48zM54,72H57V75H54zM57,72H60V75H57zM60,72H63V75H60zM63,72H66V75H63zM69,72H72V75H69zM81,72H84V75H81zM84,72H87V75H84zM90,72H93V75H90zM96,72H99V75H96zM99,72H102V75H99zM102,72H105V75H102zM105,72H108V75H105zM108,72H111V75H108zM111,72H114V75H111zM24,75H27V78H24zM39,75H42V78H39zM57,75H60V78H57zM66,75H69V78H66zM69,75H72V78H69zM72,75H75V78H72zM78,75H81V78H78zM81,75H84V78H81zM90,75H93V78H90zM93,75H96V78H93zM108,75H111V78H108zM114,75H117V78H114zM117,75H120V78H117zM12,78H15V81H12zM15,78H18V81H15zM21,78H24V81H21zM27,78H30V81H27zM30,78H33V81H30zM33,78H36V81H33zM45,78H48V81H45zM51,78H54V81H51zM57,78H60V81H57zM63,78H66V81H63zM72,78H75V81H72zM75,78H78V81H75zM78,78H81V81H78zM81,78H84V81H81zM84,78H87V81H84zM93,78H96V81H93zM96,78H99V81H96zM99,78H102V81H99zM102,78H105V81H102zM105,78H108V81H105zM111,78H114V81H111zM117,78H120V81H117zM120,78H123V81H120zM15,81H18V84H15zM18,81H21V84H18zM21,81H24V84H21zM24,81H27V84H24zM27,81H30V84H27zM45,81H48V84H45zM57,81H60V84H57zM63,81H66V84H63zM72,81H75V84H72zM90,81H93V84H90zM93,81H96V84H93zM96,81H99V84H96zM105,81H108V84H105zM108,81H111V84H108zM111,81H114V84H111zM114,81H117V84H114zM30,84H33V87H30zM36,84H39V87H36zM45,84H48V87H45zM48,84H51V87H48zM57,84H60V87H57zM60,84H63V87H60zM63,84H66V87H63zM66,84H69V87H66zM72,84H75V87H72zM75,84H78V87H75zM84,84H87V87H84zM87,84H90V87H87zM93,84H96V87H93zM96,84H99V87H96zM102,84H105V87H102zM105,84H108V87H105zM120,84H123V87H120zM12,87H15V90H12zM18,87H21V90H18zM21,87H24V90H21zM24,87H27V90H24zM27,87H30V90H27zM36,87H39V90H36zM42,87H45V90H42zM48,87H51V90H48zM51,87H54V90H51zM60,87H63V90H60zM66,87H69V90H66zM75,87H78V90H75zM78,87H81V90H78zM81,87H84V90H81zM87,87H90V90H87zM96,87H99V90H96zM108,87H111V90H108zM12,90H15V93H12zM15,90H18V93H15zM24,90H27V93H24zM27,90H30V93H27zM30,90H33V93H30zM33,90H36V93H33zM36,90H39V93H36zM42,90H45V93H42zM45,90H48V93H45zM51,90H54V93H51zM60,90H63V93H60zM69,90H72V93H69zM72,90H75V93H72zM84,90H87V93H84zM90,90H93V93H90zM93,90H96V93H93zM102,90H105V93H102zM114,90H117V93H114zM117,90H120V93H117zM120,90H123V93H120zM12,93H15V96H12zM21,93H24V96H21zM36,93H39V96H36zM45,93H48V96H45zM48,93H51V96H48zM57,93H60V96H57zM96,93H99V96H96zM99,93H102V96H99zM102,93H105V96H102zM105,93H108V96H105zM108,93H111V96H108zM111,93H114V96H111zM114,93H117V96H114zM117,93H120V96H117zM12,96H15V99H12zM18,96H21V99H18zM21,96H24V99H21zM24,96H27V99H24zM27,96H30V99H27zM30,96H33V99H30zM39,96H42V99H39zM48,96H51V99H48zM54,96H57V99H54zM60,96H63V99H60zM72,96H75V99H72zM78,96H81V99H78zM81,96H84V99H81zM84,96H87V99H84zM87,96H90V99H87zM96,96H99V99H96zM99,96H102V99H99zM102,96H105V99H102zM105,96H108V99H105zM108,96H111V99H108zM111,96H114V99H111zM114,96H117V99H114zM36,99H39V102H36zM48,99H51V102H48zM51,99H54V102H51zM54,99H57V102H54zM57,99H60V102H57zM69,99H72V102H69zM72,99H75V102H72zM75,99H78V102H75zM78,99H81V102H78zM84,99H87V102H84zM87,99H90V102H87zM96,99H99V102H96zM108,99H111V102H108zM114,99H117V102H114zM12,102H15V105H12zM15,102H18V105H15zM18,102H21V105H18zM21,102H24V105H21zM24,102H27V105H24zM27,102H30V105H27zM30,102H33V105H30zM36,102H39V105H36zM42,102H45V105H42zM45,102H48V105H45zM48,102H51V105H48zM51,102H54V105H51zM54,102H57V105H54zM57,102H60V105H57zM69,102H72V105H69zM81,102H84V105H81zM87,102H90V105H87zM90,102H93V105H90zM96,102H99V105H96zM102,102H105V105H102zM108,102H111V105H108zM120,102H123V105H120zM12,105H15V108H12zM30,105H33V108H30zM36,105H39V108H36zM39,105H42V108H39zM42,105H45V108H42zM45,105H48V108H45zM48,105H51V108H48zM51,105H54V108H51zM60,105H63V108H60zM63,105H66V108H63zM66,105H69V108H66zM69,105H72V108H69zM72,105H75V108H72zM78,105H81V108H78zM87,105H90V108H87zM90,105H93V108H90zM93,105H96V108H93zM96,105H99V108H96zM108,105H111V108H108zM117,105H120V108H117zM120,105H123V108H120zM12,108H15V111H12zM18,108H21V111H18zM21,108H24V111H21zM24,108H27V111H24zM30,108H33V111H30zM36,108H39V111H36zM39,108H42V111H39zM45,108H48V111H45zM48,108H51V111H48zM51,108H54V111H51zM57,108H60V111H57zM69,108H72V111H69zM72,108H75V111H72zM78,108H81V111H78zM84,108H87V111H84zM93,108H96V111H93zM96,108H99V111H96zM99,108H102V111H99zM102,108H105V111H102zM105,108H108V111H105zM108,108H111V111H108zM117,108H120V111H117zM120,108H123V111H120zM12,111H15V114H12zM18,111H21V114H18zM21,111H24V114H21zM24,111H27V114H24zM30,111H33V114H30zM36,111H39V114H36zM42,111H45V114H42zM51,111H54V114H51zM54,111H57V114H54zM60,111H63V114H60zM66,111H69V114H66zM69,111H72V114H69zM87,111H90V114H87zM99,111H102V114H99zM102,111H105V114H102zM114,111H117V114H114zM120,111H123V114H120zM12,114H15V117H12zM18,114H21V117H18zM21,114H24V117H21zM24,114H27V117H24zM30,114H33V117H30zM39,114H42V117H39zM42,114H45V117H42zM51,114H54V117H51zM57,114H60V117H57zM60,114H63V117H60zM66,114H69V117H66zM81,114H84V117H81zM84,114H87V117H84zM93,114H96V117H93zM108,114H111V117H108zM114,114H117V117H114zM120,114H123V117H120zM12,117H15V120H12zM30,117H33V120H30zM39,117H42V120H39zM42,117H45V120H42zM48,117H51V120H48zM51,117H54V120H51zM54,117H57V120H54zM60,117H63V120H60zM63,117H66V120H63zM66,117H69V120H66zM72,117H75V120H72zM81,117H84V120H81zM84,117H87V120H84zM96,117H99V120H96zM99,117H102V120H99zM108,117H111V120H108zM111,117H114V120H111zM114,117H117V120H114zM117,117H120V120H117zM120,117H123V120H120zM12,120H15V123H12zM15,120H18V123H15zM18,120H21V123H18zM21,120H24V123H21zM24,120H27V123H24zM27,120H30V123H27zM30,120H33V123H30zM36,120H39V123H36zM57,120H60V123H57zM60,120H63V123H60zM69,120H72V123H69zM72,120H75V123H72zM84,120H87V123H84zM96,120H99V123H96zM99,120H102V123H99zM102,120H105V123H102zM105,120H108V123H105zM111,120H114V123H111zM120,120H123V123H120z" id="qr-path" fill="#000000" fill-opacity="1" fill-rule="nonzero" stroke="none" /></svg>